<mxfile host="app.diagrams.net" modified="2023-10-20T10:50:21.013Z" agent="Mozilla/5.0 (Windows NT 10.0; Win64; x64) AppleWebKit/537.36 (KHTML, like Gecko) Chrome/118.0.0.0 Safari/537.36" version="22.0.5" etag="dLY6f-oVrYsWcPrXJfqo" type="github">
  <diagram name="PÃ gina-1" id="K6xASIu4-l95jYjjhM0C">
    <mxGraphModel>
      <root>
        <mxCell id="0" />
        <mxCell id="1" parent="0" />
      </root>
    </mxGraphModel>
  </diagram>
</mxfile>
